<svg version="1.1" xmlns="http://www.w3.org/2000/svg" xmlns:xlink="http://www.w3.org/1999/xlink" width="1512" height="863"><defs><clipPath id="aePPTNAvPSSF"><path fill="none" stroke="none" d=" M 0 0 L 1512 0 L 1512 863 L 0 863 L 0 0 Z"/></clipPath></defs><g transform="scale(1,1)" clip-path="url(#aePPTNAvPSSF)"><g><rect fill="rgb(255,255,255)" stroke="none" x="0" y="0" width="1512" height="863" fill-opacity="1"/><path fill="rgb(153,51,0)" stroke="none" paint-order="stroke fill markers" fill-rule="evenodd" d=" M 566 605.5 L 792 261.50000000000006 L 928 606.5 Z" fill-opacity="0.09803921568627451"/><path fill="none" stroke="rgb(0,0,0)" paint-order="fill stroke markers" d=" M -5 438.36823550759186 L 1517 442.57265539709465" stroke-opacity="0.6980392156862745" stroke-linecap="round" stroke-linejoin="round" stroke-miterlimit="10" stroke-width="2.5"/><path fill="none" stroke="rgb(0,0,0)" paint-order="fill stroke markers" d=" M -5 603.9226519337016 L 1517 608.1270718232042" stroke-opacity="0.6980392156862745" stroke-linecap="round" stroke-linejoin="round" stroke-miterlimit="10" stroke-width="2.5"/><path fill="none" stroke="rgb(153,51,0)" paint-order="fill stroke markers" d=" M 566 605.5 L 792 261.50000000000006" stroke-opacity="0.6980392156862745" stroke-linecap="round" stroke-linejoin="round" stroke-miterlimit="10" stroke-width="2.5"/><path fill="none" stroke="rgb(153,51,0)" paint-order="fill stroke markers" d=" M 792 261.50000000000006 L 928 606.5" stroke-opacity="0.6980392156862745" stroke-linecap="round" stroke-linejoin="round" stroke-miterlimit="10" stroke-width="2.5"/><path fill="none" stroke="rgb(153,51,0)" paint-order="fill stroke markers" d=" M 928 606.5 L 566 605.5" stroke-opacity="0.6980392156862745" stroke-linecap="round" stroke-linejoin="round" stroke-miterlimit="10" stroke-width="2.5"/><path fill="rgb(77,77,255)" stroke="none" paint-order="stroke fill markers" d=" M 571 605.5 C 571 608.261423749154 568.761423749154 610.5 566 610.5 C 563.238576250846 610.5 561 608.261423749154 561 605.5 C 561 602.738576250846 563.238576250846 600.5 566 600.5 C 568.761423749154 600.5 571 602.738576250846 571 605.5 Z" fill-opacity="1"/><path fill="none" stroke="rgb(0,0,0)" paint-order="fill stroke markers" d=" M 571 605.5 C 571 608.261423749154 568.761423749154 610.5 566 610.5 C 563.238576250846 610.5 561 608.261423749154 561 605.5 C 561 602.738576250846 563.238576250846 600.5 566 600.5 C 568.761423749154 600.5 571 602.738576250846 571 605.5 Z" stroke-opacity="1" stroke-linecap="round" stroke-linejoin="round" stroke-miterlimit="10"/><text fill="rgb(77,77,255)" stroke="none" font-family="geogebra-sans-serif, sans-serif" font-size="16px" font-style="normal" font-weight="normal" text-decoration="normal" x="550" y="590" text-anchor="start" dominant-baseline="alphabetic" fill-opacity="1">A</text><text fill="rgb(77,77,255)" stroke="none" font-family="geogebra-sans-serif, sans-serif" font-size="16px" font-style="normal" font-weight="normal" text-decoration="normal" x="550" y="590" text-anchor="start" dominant-baseline="alphabetic" fill-opacity="1">A</text><path fill="rgb(77,77,255)" stroke="none" paint-order="stroke fill markers" d=" M 797 261.50000000000006 C 797 264.261423749154 794.761423749154 266.50000000000006 792 266.50000000000006 C 789.238576250846 266.50000000000006 787 264.261423749154 787 261.50000000000006 C 787 258.7385762508461 789.238576250846 256.50000000000006 792 256.50000000000006 C 794.761423749154 256.50000000000006 797 258.7385762508461 797 261.50000000000006 Z" fill-opacity="1"/><path fill="none" stroke="rgb(0,0,0)" paint-order="fill stroke markers" d=" M 797 261.50000000000006 C 797 264.261423749154 794.761423749154 266.50000000000006 792 266.50000000000006 C 789.238576250846 266.50000000000006 787 264.261423749154 787 261.50000000000006 C 787 258.7385762508461 789.238576250846 256.50000000000006 792 256.50000000000006 C 794.761423749154 256.50000000000006 797 258.7385762508461 797 261.50000000000006 Z" stroke-opacity="1" stroke-linecap="round" stroke-linejoin="round" stroke-miterlimit="10"/><text fill="rgb(77,77,255)" stroke="none" font-family="geogebra-sans-serif, sans-serif" font-size="16px" font-style="normal" font-weight="normal" text-decoration="normal" x="796" y="252" text-anchor="start" dominant-baseline="alphabetic" fill-opacity="1">B</text><text fill="rgb(77,77,255)" stroke="none" font-family="geogebra-sans-serif, sans-serif" font-size="16px" font-style="normal" font-weight="normal" text-decoration="normal" x="796" y="252" text-anchor="start" dominant-baseline="alphabetic" fill-opacity="1">B</text><path fill="rgb(77,77,255)" stroke="none" paint-order="stroke fill markers" d=" M 933 606.5 C 933 609.261423749154 930.761423749154 611.5 928 611.5 C 925.238576250846 611.5 923 609.261423749154 923 606.5 C 923 603.738576250846 925.238576250846 601.5 928 601.5 C 930.761423749154 601.5 933 603.738576250846 933 606.5 Z" fill-opacity="1"/><path fill="none" stroke="rgb(0,0,0)" paint-order="fill stroke markers" d=" M 933 606.5 C 933 609.261423749154 930.761423749154 611.5 928 611.5 C 925.238576250846 611.5 923 609.261423749154 923 606.5 C 923 603.738576250846 925.238576250846 601.5 928 601.5 C 930.761423749154 601.5 933 603.738576250846 933 606.5 Z" stroke-opacity="1" stroke-linecap="round" stroke-linejoin="round" stroke-miterlimit="10"/><text fill="rgb(77,77,255)" stroke="none" font-family="geogebra-sans-serif, sans-serif" font-size="16px" font-style="normal" font-weight="normal" text-decoration="normal" x="932" y="597" text-anchor="start" dominant-baseline="alphabetic" fill-opacity="1">C</text><text fill="rgb(77,77,255)" stroke="none" font-family="geogebra-sans-serif, sans-serif" font-size="16px" font-style="normal" font-weight="normal" text-decoration="normal" x="932" y="597" text-anchor="start" dominant-baseline="alphabetic" fill-opacity="1">C</text><path fill="rgb(125,125,255)" stroke="none" paint-order="stroke fill markers" d=" M 679.5683658772696 440.24549618681084 C 679.5683658772696 443.0069199359648 677.3297896264236 445.24549618681084 674.5683658772696 445.24549618681084 C 671.8069421281156 445.24549618681084 669.5683658772696 443.0069199359648 669.5683658772696 440.24549618681084 C 669.5683658772696 437.4840724376569 671.8069421281156 435.24549618681084 674.5683658772696 435.24549618681084 C 677.3297896264236 435.24549618681084 679.5683658772696 437.4840724376569 679.5683658772696 440.24549618681084 Z" fill-opacity="1"/><path fill="none" stroke="rgb(0,0,0)" paint-order="fill stroke markers" d=" M 679.5683658772696 440.24549618681084 C 679.5683658772696 443.0069199359648 677.3297896264236 445.24549618681084 674.5683658772696 445.24549618681084 C 671.8069421281156 445.24549618681084 669.5683658772696 443.0069199359648 669.5683658772696 440.24549618681084 C 669.5683658772696 437.4840724376569 671.8069421281156 435.24549618681084 674.5683658772696 435.24549618681084 C 677.3297896264236 435.24549618681084 679.5683658772696 437.4840724376569 679.5683658772696 440.24549618681084 Z" stroke-opacity="1" stroke-linecap="round" stroke-linejoin="round" stroke-miterlimit="10"/><text fill="rgb(125,125,255)" stroke="none" font-family="geogebra-sans-serif, sans-serif" font-size="16px" font-style="normal" font-weight="normal" text-decoration="normal" x="651" y="429" text-anchor="start" dominant-baseline="alphabetic" fill-opacity="1">D</text><text fill="rgb(125,125,255)" stroke="none" font-family="geogebra-sans-serif, sans-serif" font-size="16px" font-style="normal" font-weight="normal" text-decoration="normal" x="651" y="429" text-anchor="start" dominant-baseline="alphabetic" fill-opacity="1">D</text><path fill="rgb(68,68,68)" stroke="none" paint-order="stroke fill markers" d=" M 866.6668240738554 440.7651051873539 C 866.6668240738554 442.9742441866771 864.8759630731786 444.7651051873539 862.6668240738554 444.7651051873539 C 860.4576850745323 444.7651051873539 858.6668240738554 442.9742441866771 858.6668240738554 440.7651051873539 C 858.6668240738554 438.55596618803077 860.4576850745323 436.7651051873539 862.6668240738554 436.7651051873539 C 864.8759630731786 436.7651051873539 866.6668240738554 438.55596618803077 866.6668240738554 440.7651051873539 Z" fill-opacity="1"/><path fill="none" stroke="rgb(0,0,0)" paint-order="fill stroke markers" d=" M 866.6668240738554 440.7651051873539 C 866.6668240738554 442.9742441866771 864.8759630731786 444.7651051873539 862.6668240738554 444.7651051873539 C 860.4576850745323 444.7651051873539 858.6668240738554 442.9742441866771 858.6668240738554 440.7651051873539 C 858.6668240738554 438.55596618803077 860.4576850745323 436.7651051873539 862.6668240738554 436.7651051873539 C 864.8759630731786 436.7651051873539 866.6668240738554 438.55596618803077 866.6668240738554 440.7651051873539 Z" stroke-opacity="1" stroke-linecap="round" stroke-linejoin="round" stroke-miterlimit="10"/><text fill="rgb(68,68,68)" stroke="none" font-family="geogebra-sans-serif, sans-serif" font-size="16px" font-style="normal" font-weight="normal" text-decoration="normal" x="867" y="433" text-anchor="start" dominant-baseline="alphabetic" fill-opacity="1">E</text><text fill="rgb(68,68,68)" stroke="none" font-family="geogebra-sans-serif, sans-serif" font-size="16px" font-style="normal" font-weight="normal" text-decoration="normal" x="867" y="433" text-anchor="start" dominant-baseline="alphabetic" fill-opacity="1">E</text></g></g></svg>