<?xml version="1.0" standalone="no"?>
<!DOCTYPE svg PUBLIC "-//W3C//DTD SVG 20010904//EN"
 "http://www.w3.org/TR/2001/REC-SVG-20010904/DTD/svg10.dtd">
<svg version="1.0" xmlns="http://www.w3.org/2000/svg"
 width="700.000000pt" height="700.000000pt" viewBox="0 0 700.000000 700.000000"
 preserveAspectRatio="xMidYMid meet">
<metadata>
Created by potrace 1.14, written by Peter Selinger 2001-2017
</metadata>
<g transform="translate(0.000000,700.000000) scale(0.100000,-0.100000)"
fill="#000000" stroke="none">
<path d="M0 3500 l0 -3500 3500 0 3500 0 0 3500 0 3500 -596 -2 -597 -3 -358
-798 c-198 -439 -359 -802 -359 -807 0 -6 159 -10 415 -10 l415 0 0 -49 0 -50
-47 -6 c-247 -30 -327 -62 -380 -152 -61 -104 -57 -14 -61 -1568 -3 -1478 -2
-1520 39 -1630 42 -112 151 -174 334 -190 119 -10 115 -8 115 -65 l0 -50 -795
0 -795 0 0 50 c0 57 -4 55 122 65 211 16 323 83 363 218 32 109 36 271 33
1591 l-3 1310 -225 -500 c-123 -274 -450 -1003 -727 -1619 l-502 -1120 -42 0
-41 0 -50 110 c-28 61 -248 540 -490 1065 -242 525 -537 1167 -656 1425 -118
259 -219 474 -224 480 -12 13 -10 -2304 2 -2448 23 -276 86 -406 226 -468 50
-23 177 -49 234 -49 63 0 70 -6 70 -61 l0 -49 -670 0 -670 0 0 50 c0 57 -4 55
115 65 140 12 253 54 311 117 45 47 73 109 97 212 21 89 21 114 25 1446 2 925
0 1381 -8 1436 -22 168 -62 229 -174 270 -74 27 -230 54 -308 54 l-48 0 0 60
0 60 560 0 560 0 14 -22 c7 -13 303 -656 657 -1430 354 -774 647 -1408 650
-1408 3 0 285 638 627 1418 342 779 783 1785 981 2235 l358 817 -2748 0 -2749
0 0 -3500z"/>
</g>
</svg>
